<svg xmlns="http://www.w3.org/2000/svg" xmlns:xlink="http://www.w3.org/1999/xlink" preserveAspectRatio="xMidYMid" width="84" height="100" viewBox="0 0 84 100">
  <defs>
    <style>
      .cls-1 {
        fill: url(#linear-gradient-1);
      }

      .cls-1, .cls-2, .cls-3 {
        fill-rule: evenodd;
      }

      .cls-2 {
        fill: #cedae1;
      }

      .cls-3 {
        fill: #fff;
        opacity: 0.6;
      }
    </style>

    <linearGradient id="linear-gradient-1" gradientUnits="userSpaceOnUse" x1="42" y1="100" x2="42">
      <stop offset="0" stop-color="#c1c9cc"/>
      <stop offset="1" stop-color="#a7b1b6"/>
    </linearGradient>
  </defs>
  <g>
    <path d="M84.000,22.000 L84.000,96.000 C84.000,98.209 82.209,100.000 80.000,100.000 L4.000,100.000 C1.791,100.000 0.000,98.209 0.000,96.000 L0.000,4.000 C0.000,1.791 1.791,0.000 4.000,0.000 L62.000,0.000 L84.000,22.000 Z" class="cls-1"/>
    <path d="M84.000,22.000 L66.000,22.000 C63.791,22.000 62.000,20.209 62.000,18.000 L62.000,0.000 L84.000,22.000 Z" class="cls-2"/>
    <path d="M63.794,59.013 L20.225,59.013 C19.557,59.013 19.015,58.452 19.015,57.761 L19.015,55.259 C19.015,54.568 19.557,54.008 20.225,54.008 L63.794,54.008 C64.462,54.008 65.004,54.568 65.004,55.259 L65.004,57.761 C65.004,58.452 64.462,59.013 63.794,59.013 ZM63.794,43.997 L20.225,43.997 C19.557,43.997 19.015,43.437 19.015,42.746 L19.015,40.243 C19.015,39.552 19.557,38.992 20.225,38.992 L63.794,38.992 C64.462,38.992 65.004,39.552 65.004,40.243 L65.004,42.746 C65.004,43.437 64.462,43.997 63.794,43.997 ZM20.187,68.991 L63.807,68.991 C64.468,68.991 65.004,69.551 65.004,70.242 L65.004,72.745 C65.004,73.436 64.468,73.996 63.807,73.996 L20.187,73.996 C19.526,73.996 18.989,73.436 18.989,72.745 L18.989,70.242 C18.989,69.551 19.526,68.991 20.187,68.991 Z" class="cls-3"/>
  </g>
</svg>
