<svg xmlns="http://www.w3.org/2000/svg" xmlns:xlink="http://www.w3.org/1999/xlink" preserveAspectRatio="xMidYMid" width="84" height="100" viewBox="0 0 84 100">
  <defs>
    <style>
      .cls-1 {
        fill: url(#linear-gradient-1);
      }

      .cls-1, .cls-2, .cls-3, .cls-4 {
        fill-rule: evenodd;
      }

      .cls-2 {
        fill: #fdd47a;
      }

      .cls-3, .cls-4 {
        fill: #fff;
      }

      .cls-4 {
        opacity: 0.6;
      }
    </style>

    <linearGradient id="linear-gradient-1" gradientUnits="userSpaceOnUse" x1="42" y1="100" x2="42">
      <stop offset="0" stop-color="#fcc11a"/>
      <stop offset="1" stop-color="#faa70b"/>
    </linearGradient>
  </defs>
  <g>
    <path d="M84.000,22.000 L84.000,96.000 C84.000,98.209 82.209,100.000 80.000,100.000 L4.000,100.000 C1.791,100.000 -0.000,98.209 -0.000,96.000 L-0.000,4.000 C-0.000,1.791 1.791,0.000 4.000,0.000 L62.000,0.000 L84.000,22.000 Z" class="cls-1"/>
    <path d="M84.000,22.000 L66.000,22.000 C63.791,22.000 62.000,20.209 62.000,18.000 L62.000,0.000 L84.000,22.000 Z" class="cls-2"/>
    <path d="M45.991,18.228 L45.991,18.268 C47.366,18.568 48.135,19.428 48.297,20.868 L48.519,23.067 C48.600,23.947 48.863,24.647 49.288,25.167 L47.488,25.167 C47.164,24.687 46.962,24.067 46.901,23.267 L46.719,21.368 C46.638,20.528 46.335,19.908 45.809,19.548 C45.324,19.188 44.636,19.028 43.726,19.028 L39.358,19.028 L39.358,25.167 L37.699,25.167 L37.699,10.891 L43.928,10.891 C45.364,10.891 46.497,11.210 47.326,11.870 C48.175,12.550 48.620,13.550 48.620,14.869 C48.620,15.669 48.398,16.369 47.953,16.989 C47.468,17.629 46.820,18.029 45.991,18.228 ZM46.193,12.970 C45.668,12.530 44.838,12.310 43.726,12.310 L39.358,12.310 L39.358,17.609 L43.726,17.609 C44.778,17.609 45.607,17.349 46.173,16.869 C46.679,16.409 46.942,15.769 46.942,14.929 C46.942,14.050 46.679,13.390 46.193,12.970 ZM32.902,21.168 L26.269,21.168 L24.732,25.167 L22.952,25.167 L28.635,10.891 L30.556,10.891 L36.239,25.167 L34.440,25.167 L32.902,21.168 ZM29.646,12.650 L29.566,12.650 L26.795,19.788 L32.377,19.788 L29.646,12.650 ZM21.331,20.868 L21.553,23.067 C21.634,23.947 21.897,24.647 22.321,25.167 L20.522,25.167 C20.198,24.687 19.996,24.067 19.935,23.267 L19.753,21.368 C19.672,20.528 19.369,19.908 18.843,19.548 C18.358,19.188 17.670,19.028 16.760,19.028 L12.391,19.028 L12.391,25.167 L10.733,25.167 L10.733,10.891 L16.962,10.891 C18.398,10.891 19.531,11.210 20.360,11.870 C21.209,12.550 21.654,13.550 21.654,14.869 C21.654,15.669 21.432,16.369 20.987,16.989 C20.501,17.629 19.854,18.029 19.025,18.228 L19.025,18.268 C20.400,18.568 21.169,19.428 21.331,20.868 ZM19.207,16.869 C19.713,16.409 19.975,15.769 19.975,14.929 C19.975,14.050 19.713,13.390 19.227,12.970 C18.701,12.530 17.872,12.310 16.760,12.310 L12.391,12.310 L12.391,17.609 L16.760,17.609 C17.812,17.609 18.641,17.349 19.207,16.869 Z" class="cls-3"/>
    <path d="M50.000,77.677 C50.000,82.275 46.640,86.002 42.496,86.002 C38.351,86.002 34.991,82.275 34.991,77.677 C34.991,77.134 35.041,76.605 35.131,76.091 L34.991,76.091 L35.289,75.372 C35.499,74.560 35.816,73.799 36.224,73.110 L39.994,63.996 L44.997,63.996 L48.767,73.110 C49.176,73.799 49.492,74.560 49.703,75.372 L50.000,76.091 L49.861,76.091 C49.950,76.605 50.000,77.134 50.000,77.677 ZM42.496,73.052 C40.423,73.052 38.743,75.123 38.743,77.678 C38.743,80.232 40.423,82.303 42.496,82.303 C44.568,82.303 46.248,80.232 46.248,77.678 C46.248,75.123 44.568,73.052 42.496,73.052 ZM40.000,55.000 L45.000,55.000 L45.000,60.000 L40.000,60.000 L40.000,55.000 ZM40.000,47.000 L45.000,47.000 L45.000,52.000 L40.000,52.000 L40.000,47.000 ZM40.000,38.000 L45.000,38.000 L45.000,43.000 L40.000,43.000 L40.000,38.000 Z" class="cls-4"/>
  </g>
</svg>
