<svg xmlns="http://www.w3.org/2000/svg" xmlns:xlink="http://www.w3.org/1999/xlink" preserveAspectRatio="xMidYMid" width="84" height="100" viewBox="0 0 84 100">
  <defs>
    <style>
      .cls-1 {
        fill: url(#linear-gradient-1);
      }

      .cls-1, .cls-2, .cls-3, .cls-4 {
        fill-rule: evenodd;
      }

      .cls-2 {
        fill: #fdd47a;
      }

      .cls-3, .cls-4 {
        fill: #fff;
      }

      .cls-4 {
        opacity: 0.6;
      }
    </style>

    <linearGradient id="linear-gradient-1" gradientUnits="userSpaceOnUse" x1="42" y1="100" x2="42">
      <stop offset="0" stop-color="#fcc11a"/>
      <stop offset="1" stop-color="#faa70b"/>
    </linearGradient>
  </defs>
  <g>
    <path d="M84.000,22.000 L84.000,96.000 C84.000,98.209 82.209,100.000 80.000,100.000 L4.000,100.000 C1.791,100.000 -0.000,98.209 -0.000,96.000 L-0.000,4.000 C-0.000,1.791 1.791,0.000 4.000,0.000 L62.000,0.000 L84.000,22.000 Z" class="cls-1"/>
    <path d="M84.000,22.000 L66.000,22.000 C63.791,22.000 62.000,20.209 62.000,18.000 L62.000,0.000 L84.000,22.000 Z" class="cls-2"/>
    <path d="M39.154,19.328 L34.927,19.328 L34.927,25.167 L33.269,25.167 L33.269,10.891 L39.175,10.891 C42.491,10.891 44.150,12.290 44.150,15.089 C44.150,17.909 42.471,19.328 39.154,19.328 ZM41.642,13.010 C41.076,12.530 40.226,12.310 39.073,12.310 L34.927,12.310 L34.927,17.909 L39.073,17.909 C40.246,17.909 41.096,17.669 41.662,17.209 C42.208,16.749 42.491,16.049 42.491,15.089 C42.491,14.130 42.208,13.430 41.642,13.010 ZM28.596,10.891 L30.234,10.891 L30.234,25.167 L28.596,25.167 L28.596,10.891 ZM14.901,23.827 L23.901,12.310 L15.508,12.310 L15.508,10.891 L26.024,10.891 L26.024,12.250 L17.045,23.747 L26.509,23.747 L26.509,25.167 L14.901,25.167 L14.901,23.827 Z" class="cls-3"/>
    <path d="M50.000,77.677 C50.000,82.275 46.640,86.002 42.496,86.002 C38.351,86.002 34.991,82.275 34.991,77.677 C34.991,77.134 35.041,76.605 35.131,76.091 L34.991,76.091 L35.289,75.372 C35.499,74.560 35.816,73.799 36.224,73.110 L39.994,63.996 L44.997,63.996 L48.767,73.110 C49.176,73.799 49.492,74.560 49.702,75.372 L50.000,76.091 L49.861,76.091 C49.950,76.605 50.000,77.134 50.000,77.677 ZM42.496,73.052 C40.423,73.052 38.743,75.123 38.743,77.678 C38.743,80.232 40.423,82.303 42.496,82.303 C44.568,82.303 46.248,80.232 46.248,77.678 C46.248,75.123 44.568,73.052 42.496,73.052 ZM40.000,55.000 L45.000,55.000 L45.000,60.000 L40.000,60.000 L40.000,55.000 ZM40.000,47.000 L45.000,47.000 L45.000,52.000 L40.000,52.000 L40.000,47.000 ZM40.000,38.000 L45.000,38.000 L45.000,43.000 L40.000,43.000 L40.000,38.000 Z" class="cls-4"/>
  </g>
</svg>
