<svg xmlns="http://www.w3.org/2000/svg" xmlns:xlink="http://www.w3.org/1999/xlink" preserveAspectRatio="xMidYMid" width="84" height="100" viewBox="0 0 84 100">
  <defs>
    <style>
      .cls-1 {
        fill: url(#linear-gradient-1);
      }

      .cls-1, .cls-2, .cls-3, .cls-4 {
        fill-rule: evenodd;
      }

      .cls-2 {
        fill: #6e99fc;
      }

      .cls-3, .cls-4 {
        fill: #fff;
      }

      .cls-4 {
        opacity: 0.6;
      }
    </style>

    <linearGradient id="linear-gradient-1" gradientUnits="userSpaceOnUse" x1="42" y1="100" x2="42">
      <stop offset="0" stop-color="#5989da"/>
      <stop offset="1" stop-color="#3666c8"/>
    </linearGradient>
  </defs>
  <g>
    <path d="M84.000,22.000 L84.000,96.000 C84.000,98.209 82.209,100.000 80.000,100.000 L4.000,100.000 C1.791,100.000 -0.000,98.209 -0.000,96.000 L-0.000,4.000 C-0.000,1.791 1.791,-0.000 4.000,-0.000 L62.000,-0.000 L84.000,22.000 Z" class="cls-1"/>
    <path d="M84.000,22.000 L66.000,22.000 C63.791,22.000 62.000,20.209 62.000,18.000 L62.000,-0.000 L84.000,22.000 Z" class="cls-2"/>
    <path d="M50.330,12.870 C49.541,12.330 48.591,12.070 47.458,12.070 C45.780,12.070 44.485,12.650 43.575,13.810 C42.726,14.889 42.301,16.309 42.301,18.089 C42.301,19.868 42.706,21.288 43.555,22.327 C44.445,23.427 45.719,23.987 47.418,23.987 C48.571,23.987 49.541,23.687 50.350,23.087 C51.200,22.447 51.786,21.508 52.069,20.268 L53.667,20.268 C53.344,21.927 52.595,23.227 51.402,24.147 C50.290,25.007 48.955,25.446 47.418,25.446 C45.173,25.446 43.454,24.707 42.261,23.247 C41.169,21.927 40.643,20.208 40.643,18.089 C40.643,15.969 41.189,14.230 42.301,12.870 C43.515,11.350 45.254,10.611 47.479,10.611 C49.076,10.611 50.431,11.031 51.523,11.870 C52.615,12.710 53.263,13.850 53.465,15.269 L51.867,15.269 C51.665,14.230 51.139,13.430 50.330,12.870 ZM32.023,25.446 C29.859,25.446 28.160,24.727 26.906,23.307 C25.713,21.947 25.127,20.188 25.127,18.049 C25.127,15.889 25.713,14.130 26.906,12.770 C28.160,11.330 29.859,10.611 32.043,10.611 C34.187,10.611 35.906,11.310 37.160,12.750 C38.333,14.110 38.940,15.869 38.940,18.049 C38.940,20.208 38.333,21.947 37.160,23.307 C35.906,24.727 34.187,25.446 32.023,25.446 ZM35.926,13.710 C34.996,12.610 33.702,12.070 32.043,12.070 C30.385,12.070 29.070,12.630 28.120,13.770 C27.230,14.849 26.785,16.269 26.785,18.049 C26.785,19.808 27.230,21.228 28.120,22.307 C29.050,23.427 30.365,23.987 32.023,23.987 C33.681,23.987 34.996,23.427 35.926,22.347 C36.816,21.268 37.281,19.848 37.281,18.049 C37.281,16.229 36.816,14.789 35.926,13.710 ZM16.467,25.167 L11.451,25.167 L11.451,10.891 L16.628,10.891 C18.914,10.891 20.633,11.530 21.806,12.850 C22.878,14.050 23.424,15.789 23.424,18.029 C23.424,20.228 22.837,21.967 21.684,23.207 C20.471,24.507 18.732,25.167 16.467,25.167 ZM20.532,13.770 C19.642,12.790 18.267,12.310 16.366,12.310 L13.109,12.310 L13.109,23.747 L16.184,23.747 C18.064,23.747 19.480,23.247 20.431,22.267 C21.320,21.308 21.786,19.888 21.786,18.029 C21.786,16.109 21.361,14.690 20.532,13.770 Z" class="cls-3"/>
    <path d="M64.000,76.000 L40.000,76.000 C39.448,76.000 39.000,75.552 39.000,75.000 L39.000,72.000 C39.000,71.448 39.448,71.000 40.000,71.000 L64.000,71.000 C64.552,71.000 65.000,71.448 65.000,72.000 L65.000,75.000 C65.000,75.552 64.552,76.000 64.000,76.000 ZM64.000,61.000 L20.000,61.000 C19.448,61.000 19.000,60.552 19.000,60.000 L19.000,57.000 C19.000,56.448 19.448,56.000 20.000,56.000 L64.000,56.000 C64.552,56.000 65.000,56.448 65.000,57.000 L65.000,60.000 C65.000,60.552 64.552,61.000 64.000,61.000 ZM64.000,47.000 L20.000,47.000 C19.448,47.000 19.000,46.552 19.000,46.000 L19.000,43.000 C19.000,42.448 19.448,42.000 20.000,42.000 L64.000,42.000 C64.552,42.000 65.000,42.448 65.000,43.000 L65.000,46.000 C65.000,46.552 64.552,47.000 64.000,47.000 Z" class="cls-4"/>
  </g>
</svg>
