<svg xmlns="http://www.w3.org/2000/svg" xmlns:xlink="http://www.w3.org/1999/xlink" preserveAspectRatio="xMidYMid" width="84" height="100" viewBox="0 0 84 100">
  <defs>
    <style>
      .cls-1 {
        fill: url(#linear-gradient-1);
      }

      .cls-1, .cls-2, .cls-3, .cls-4 {
        fill-rule: evenodd;
      }

      .cls-2 {
        fill: #80f7d7;
      }

      .cls-3, .cls-4 {
        fill: #fff;
      }

      .cls-4 {
        opacity: 0.6;
      }
    </style>

    <linearGradient id="linear-gradient-1" gradientUnits="userSpaceOnUse" x1="42" y1="100" x2="42">
      <stop offset="0" stop-color="#3ddcc8"/>
      <stop offset="1" stop-color="#1fccb0"/>
    </linearGradient>
  </defs>
  <g>
    <path d="M84.000,22.000 L84.000,96.000 C84.000,98.209 82.209,100.000 80.000,100.000 L4.000,100.000 C1.791,100.000 -0.000,98.209 -0.000,96.000 L-0.000,4.000 C-0.000,1.791 1.791,-0.000 4.000,-0.000 L62.000,-0.000 L84.000,22.000 Z" class="cls-1"/>
    <path d="M84.000,22.000 L66.000,22.000 C63.791,22.000 62.000,20.209 62.000,18.000 L62.000,-0.000 L84.000,22.000 Z" class="cls-2"/>
    <path d="M32.071,12.310 L32.071,25.167 L30.433,25.167 L30.433,12.310 L25.337,12.310 L25.337,10.891 L37.168,10.891 L37.168,12.310 L32.071,12.310 ZM23.351,18.868 C23.877,19.468 24.160,20.228 24.160,21.188 C24.160,22.587 23.655,23.627 22.664,24.307 C21.814,24.867 20.641,25.167 19.165,25.167 L12.754,25.167 L12.754,10.891 L19.205,10.891 C20.540,10.891 21.612,11.210 22.401,11.850 C23.169,12.490 23.553,13.370 23.553,14.490 C23.553,15.289 23.331,15.989 22.906,16.569 C22.461,17.089 21.875,17.469 21.147,17.709 C22.097,17.869 22.825,18.268 23.351,18.868 ZM21.915,14.650 C21.915,13.850 21.652,13.250 21.126,12.850 C20.601,12.450 19.832,12.270 18.821,12.270 L14.412,12.270 L14.412,17.129 L18.801,17.129 C19.812,17.129 20.580,16.909 21.106,16.509 C21.632,16.089 21.915,15.469 21.915,14.650 ZM19.023,18.488 L14.412,18.488 L14.412,23.787 L19.023,23.787 C20.034,23.787 20.823,23.587 21.430,23.227 C22.138,22.787 22.502,22.087 22.502,21.168 C22.502,20.248 22.178,19.568 21.571,19.128 C20.985,18.688 20.136,18.488 19.023,18.488 Z" class="cls-3"/>
    <path d="M40.441,73.877 C36.352,69.812 29.100,61.973 29.100,61.973 C27.388,60.279 27.882,58.299 29.100,57.089 C30.317,55.879 32.299,56.616 34.013,58.310 L38.926,63.194 L38.837,44.328 C38.837,41.932 39.572,39.992 41.996,39.992 C44.416,39.992 45.155,41.932 45.155,44.328 L45.067,63.194 L49.980,58.310 C51.693,56.616 53.675,55.879 54.893,57.089 C56.110,58.299 56.605,60.279 54.893,61.973 C54.893,61.973 47.640,69.812 43.552,73.877 C42.087,75.333 42.019,75.446 40.441,73.877 Z" class="cls-4"/>
  </g>
</svg>
