<svg xmlns="http://www.w3.org/2000/svg" xmlns:xlink="http://www.w3.org/1999/xlink" preserveAspectRatio="xMidYMid" width="84" height="100" viewBox="0 0 84 100">
  <defs>
    <style>
      .cls-1 {
        fill: url(#linear-gradient-1);
      }

      .cls-1, .cls-2, .cls-3, .cls-4 {
        fill-rule: evenodd;
      }

      .cls-2 {
        fill: #beeaff;
      }

      .cls-3, .cls-4 {
        fill: #fff;
      }

      .cls-4 {
        opacity: 0.6;
      }
    </style>

    <linearGradient id="linear-gradient-1" gradientUnits="userSpaceOnUse" x1="42" y1="100" x2="42">
      <stop offset="0" stop-color="#98bccd"/>
      <stop offset="1" stop-color="#76a1b7"/>
    </linearGradient>
  </defs>
  <g>
    <path d="M84.000,22.000 L84.000,96.000 C84.000,98.209 82.209,100.000 80.000,100.000 L4.000,100.000 C1.791,100.000 -0.000,98.209 -0.000,96.000 L-0.000,4.000 C-0.000,1.791 1.791,-0.000 4.000,-0.000 L62.000,-0.000 L84.000,22.000 Z" class="cls-1"/>
    <path d="M84.000,22.000 L66.000,22.000 C63.791,22.000 62.000,20.209 62.000,18.000 L62.000,-0.000 L84.000,22.000 Z" class="cls-2"/>
    <path d="M43.784,12.310 L43.784,25.167 L42.146,25.167 L42.146,12.310 L37.050,12.310 L37.050,10.891 L48.881,10.891 L48.881,12.310 L43.784,12.310 ZM34.559,25.167 L30.251,19.048 L25.963,25.167 L23.921,25.167 L29.240,17.749 L24.305,10.891 L26.348,10.891 L30.251,16.449 L34.174,10.891 L36.217,10.891 L31.242,17.749 L36.601,25.167 L34.559,25.167 ZM18.376,25.167 L16.738,25.167 L16.738,12.310 L11.641,12.310 L11.641,10.891 L23.472,10.891 L23.472,12.310 L18.376,12.310 L18.376,25.167 Z" class="cls-3"/>
    <path d="M18.408,42.739 L18.408,45.055 L21.855,45.055 C22.808,48.285 24.509,51.113 26.959,53.563 C24.600,55.523 21.606,56.948 18.000,57.862 L19.270,59.911 C22.967,58.886 26.097,57.260 28.637,55.055 C31.042,57.015 34.058,58.663 37.687,60.000 L39.003,58.018 C35.555,56.770 32.652,55.256 30.316,53.430 C32.403,51.180 33.990,48.396 35.079,45.055 L38.504,45.055 L38.504,42.739 L29.930,42.739 C29.250,41.291 28.501,40.044 27.685,38.997 L25.303,39.844 C26.120,40.757 26.823,41.714 27.390,42.739 L18.408,42.739 ZM24.124,45.055 L32.629,45.055 C31.745,47.750 30.407,50.066 28.637,51.982 C26.551,49.977 25.054,47.683 24.124,45.055 Z" class="cls-4"/>
    <path d="M63.755,61.015 L46.265,61.015 C45.575,61.015 45.015,60.455 45.015,59.764 L45.015,57.261 C45.015,56.570 45.575,56.010 46.265,56.010 L63.755,56.010 C64.445,56.010 65.004,56.570 65.004,57.261 L65.004,59.764 C65.004,60.455 64.445,61.015 63.755,61.015 ZM63.788,47.000 L46.201,47.000 C45.530,47.000 44.985,46.440 44.985,45.749 L44.985,43.246 C44.985,42.555 45.530,41.995 46.201,41.995 L63.788,41.995 C64.460,41.995 65.004,42.555 65.004,43.246 L65.004,45.749 C65.004,46.440 64.460,47.000 63.788,47.000 ZM65.004,72.245 L65.004,74.747 C65.004,75.438 64.462,75.999 63.793,75.999 L20.199,75.999 C19.530,75.999 18.988,75.438 18.988,74.747 L18.988,72.245 C18.988,71.554 19.530,70.994 20.199,70.994 L63.793,70.994 C64.462,70.994 65.004,71.554 65.004,72.245 Z" class="cls-4"/>
  </g>
</svg>
