<svg xmlns="http://www.w3.org/2000/svg" xmlns:xlink="http://www.w3.org/1999/xlink" preserveAspectRatio="xMidYMid" width="100" height="94" viewBox="0 0 100 94">
  <defs>
    <style>
      .cls-1 {
        fill: #fdc94a;
      }

      .cls-1, .cls-2 {
        fill-rule: evenodd;
      }

      .cls-2 {
        fill: #e4a917;
      }
    </style>
  </defs>
  <g>
    <path d="M90.000,94.000 L10.000,94.000 C4.477,94.000 0.000,89.523 0.000,84.000 L0.000,26.569 C-0.001,26.509 -0.010,26.450 -0.010,26.390 L-0.010,6.620 C-0.010,2.855 3.722,-0.013 8.325,-0.013 L38.537,-0.013 C40.839,-0.013 43.289,1.402 44.031,3.200 L45.599,7.000 L90.000,7.000 C95.523,7.000 100.000,11.477 100.000,17.000 L100.000,84.000 C100.000,89.523 95.523,94.000 90.000,94.000 Z" class="cls-1"/>
    <path d="M66.000,60.866 L66.000,61.000 L65.000,61.000 L56.000,61.000 L56.000,59.000 L65.000,59.000 L65.000,58.975 C68.908,58.716 72.000,55.473 72.000,51.500 C72.000,47.358 68.642,44.000 64.500,44.000 C63.621,44.000 62.782,44.159 61.998,44.436 C61.998,44.426 62.000,44.416 62.000,44.406 C62.000,37.779 56.627,32.406 50.000,32.406 C43.373,32.406 38.000,37.779 38.000,44.406 C38.000,44.416 38.002,44.426 38.002,44.436 C37.218,44.159 36.379,44.000 35.500,44.000 C31.358,44.000 28.000,47.358 28.000,51.500 C28.000,55.642 31.358,59.000 35.500,59.000 C35.670,59.000 35.833,58.971 36.000,58.960 L36.000,59.000 L44.000,59.000 L44.000,61.000 L36.000,61.000 L36.000,60.967 C35.833,60.976 35.670,61.000 35.500,61.000 C30.253,61.000 26.000,56.747 26.000,51.500 C26.000,46.253 30.253,42.000 35.500,42.000 C35.721,42.000 35.937,42.018 36.154,42.033 C37.112,35.235 42.937,30.000 50.000,30.000 C57.063,30.000 62.888,35.235 63.846,42.033 C64.063,42.018 64.279,42.000 64.500,42.000 C69.747,42.000 74.000,46.253 74.000,51.500 C74.000,56.235 70.532,60.147 66.000,60.866 ZM41.977,65.345 L49.000,72.224 L49.000,51.000 C49.000,50.448 49.448,50.000 50.000,50.000 C50.552,50.000 51.000,50.448 51.000,51.000 L51.000,72.150 L57.985,65.308 C58.441,64.861 59.181,64.861 59.637,65.308 C60.093,65.756 60.093,66.482 59.637,66.929 L51.109,75.282 C51.052,75.418 50.968,75.546 50.855,75.657 C50.630,75.878 50.336,75.988 50.041,75.990 C50.026,75.991 50.015,76.000 50.000,76.000 C49.975,76.000 49.955,75.988 49.931,75.986 C49.622,75.994 49.311,75.887 49.076,75.656 C48.964,75.546 48.885,75.419 48.830,75.285 L40.331,66.961 C39.876,66.515 39.876,65.791 40.331,65.345 C40.785,64.899 41.522,64.899 41.977,65.345 Z" class="cls-2"/>
  </g>
</svg>
