<svg xmlns="http://www.w3.org/2000/svg" xmlns:xlink="http://www.w3.org/1999/xlink" preserveAspectRatio="xMidYMid" width="100" height="94" viewBox="0 0 100 94">
  <defs>
    <style>
      .cls-1 {
        fill: #fdc94a;
      }

      .cls-1, .cls-2 {
        fill-rule: evenodd;
      }

      .cls-2 {
        fill: #e4a917;
      }
    </style>
  </defs>
  <g>
    <path d="M90.000,94.000 L10.000,94.000 C4.477,94.000 0.000,89.523 0.000,84.000 L0.000,26.571 C-0.001,26.510 -0.010,26.451 -0.010,26.390 L-0.010,6.620 C-0.010,2.855 3.722,-0.013 8.325,-0.013 L38.537,-0.013 C40.839,-0.013 43.289,1.402 44.031,3.200 L45.599,7.000 L90.000,7.000 C95.523,7.000 100.000,11.477 100.000,17.000 L100.000,84.000 C100.000,89.523 95.523,94.000 90.000,94.000 Z" class="cls-1"/>
    <g>
      <path d="M65.984,74.992 L35.984,74.992 C31.566,74.992 29.984,73.410 29.984,68.992 L29.984,36.992 C29.984,32.574 31.566,30.992 35.984,30.992 L65.984,30.992 C70.403,30.992 71.984,32.574 71.984,36.992 L71.984,68.992 C71.984,73.410 70.403,74.992 65.984,74.992 ZM70.000,37.000 C70.000,34.791 68.209,33.000 66.000,33.000 L36.000,33.000 C33.791,33.000 32.000,34.791 32.000,37.000 L32.000,48.000 L30.000,48.000 L30.000,58.000 L32.000,58.000 L32.000,69.000 C32.000,71.209 33.791,73.000 36.000,73.000 L66.000,73.000 C68.209,73.000 70.000,71.209 70.000,69.000 L70.000,37.000 Z" class="cls-2"/>
      <path d="M54.682,55.801 L47.407,63.076 L46.071,61.716 L53.295,54.392 C53.409,54.276 53.472,54.134 53.552,54.000 L23.531,54.000 L23.531,52.000 L53.575,52.000 C53.491,51.853 53.420,51.699 53.295,51.573 L46.081,44.259 L47.416,42.899 L54.682,50.164 C56.239,51.721 56.239,54.244 54.682,55.801 Z" class="cls-2"/>
    </g>
  </g>
</svg>
