<svg xmlns="http://www.w3.org/2000/svg" xmlns:xlink="http://www.w3.org/1999/xlink" preserveAspectRatio="xMidYMid" width="84" height="100" viewBox="0 0 84 100">
  <defs>
    <style>
      .cls-1 {
        fill: url(#linear-gradient-1);
      }

      .cls-1, .cls-2, .cls-3 {
        fill-rule: evenodd;
      }

      .cls-2 {
        fill: #d9defa;
      }

      .cls-3 {
        fill: #fff;
      }
    </style>

    <linearGradient id="linear-gradient-1" gradientUnits="userSpaceOnUse" x1="42" y1="100" x2="42">
      <stop offset="0" stop-color="#9e9eee"/>
      <stop offset="1" stop-color="#7d7ce5"/>
    </linearGradient>
  </defs>
  <g>
    <path d="M84.000,22.000 L84.000,96.000 C84.000,98.209 82.209,100.000 80.000,100.000 L4.000,100.000 C1.791,100.000 -0.000,98.209 -0.000,96.000 L-0.000,4.000 C-0.000,1.791 1.791,-0.000 4.000,-0.000 L62.000,-0.000 L84.000,22.000 Z" class="cls-1"/>
    <path d="M84.000,22.000 L66.000,22.000 C63.791,22.000 62.000,20.209 62.000,18.000 L62.000,-0.000 L84.000,22.000 Z" class="cls-2"/>
    <path d="M58.581,55.167 L56.539,55.167 L51.200,40.891 L53.020,40.891 L57.530,53.387 L57.590,53.387 L62.100,40.891 L63.921,40.891 L58.581,55.167 ZM48.870,55.167 L42.499,48.069 L40.255,50.168 L40.255,55.167 L38.596,55.167 L38.596,40.891 L40.255,40.891 L40.255,48.308 L48.021,40.891 L50.185,40.891 L43.652,47.009 L51.095,55.167 L48.870,55.167 ZM34.021,43.810 L33.960,43.810 L28.965,55.167 L27.468,55.167 L22.473,43.810 L22.412,43.810 L22.412,55.167 L20.754,55.167 L20.754,40.891 L22.817,40.891 L28.196,53.067 L28.257,53.067 L33.616,40.891 L35.679,40.891 L35.679,55.167 L34.021,55.167 L34.021,43.810 Z" class="cls-3"/>
  </g>
</svg>
