<svg xmlns="http://www.w3.org/2000/svg" xmlns:xlink="http://www.w3.org/1999/xlink" preserveAspectRatio="xMidYMid" width="84" height="100" viewBox="0 0 84 100">
  <defs>
    <style>
      .cls-1 {
        fill: url(#linear-gradient-1);
      }

      .cls-1, .cls-2, .cls-3 {
        fill-rule: evenodd;
      }

      .cls-2 {
        fill: #d9defa;
      }

      .cls-3 {
        fill: #fff;
      }
    </style>

    <linearGradient id="linear-gradient-1" gradientUnits="userSpaceOnUse" x1="42" y1="100" x2="42">
      <stop offset="0" stop-color="#9e9eee"/>
      <stop offset="1" stop-color="#7d7ce5"/>
    </linearGradient>
  </defs>
  <g>
    <path d="M84.000,22.000 L84.000,96.000 C84.000,98.209 82.209,100.000 80.000,100.000 L4.000,100.000 C1.791,100.000 -0.000,98.209 -0.000,96.000 L-0.000,4.000 C-0.000,1.791 1.791,-0.000 4.000,-0.000 L62.000,-0.000 L84.000,22.000 Z" class="cls-1"/>
    <path d="M84.000,22.000 L66.000,22.000 C63.791,22.000 62.000,20.209 62.000,18.000 L62.000,-0.000 L84.000,22.000 Z" class="cls-2"/>
    <path d="M59.451,51.927 L59.451,55.167 L57.873,55.167 L57.873,51.927 L50.613,51.927 L50.613,50.368 L57.894,40.891 L59.451,40.891 L59.451,50.588 L61.797,50.588 L61.797,51.927 L59.451,51.927 ZM57.873,43.030 L57.813,43.030 L52.008,50.588 L57.873,50.588 L57.873,43.030 ZM44.481,49.328 L40.255,49.328 L40.255,55.167 L38.596,55.167 L38.596,40.891 L44.502,40.891 C47.818,40.891 49.477,42.290 49.477,45.089 C49.477,47.909 47.798,49.328 44.481,49.328 ZM47.818,45.089 C47.818,44.130 47.535,43.430 46.969,43.010 C46.403,42.530 45.553,42.310 44.401,42.310 L40.255,42.310 L40.255,47.909 L44.401,47.909 C45.574,47.909 46.423,47.669 46.989,47.209 C47.535,46.749 47.818,46.049 47.818,45.089 ZM34.021,43.810 L33.960,43.810 L28.965,55.167 L27.468,55.167 L22.473,43.810 L22.412,43.810 L22.412,55.167 L20.754,55.167 L20.754,40.891 L22.817,40.891 L28.196,53.067 L28.257,53.067 L33.616,40.891 L35.679,40.891 L35.679,55.167 L34.021,55.167 L34.021,43.810 Z" class="cls-3"/>
  </g>
</svg>
