<svg xmlns="http://www.w3.org/2000/svg" xmlns:xlink="http://www.w3.org/1999/xlink" preserveAspectRatio="xMidYMid" width="84" height="100" viewBox="0 0 84 100">
  <defs>
    <style>
      .cls-1 {
        fill: url(#linear-gradient-1);
      }

      .cls-1, .cls-2, .cls-3 {
        fill-rule: evenodd;
      }

      .cls-2 {
        fill: #d9defa;
      }

      .cls-3 {
        fill: #fff;
      }
    </style>

    <linearGradient id="linear-gradient-1" gradientUnits="userSpaceOnUse" x1="42" y1="100" x2="42">
      <stop offset="0" stop-color="#9e9eee"/>
      <stop offset="1" stop-color="#7d7ce5"/>
    </linearGradient>
  </defs>
  <g>
    <path d="M84.000,22.000 L84.000,96.000 C84.000,98.209 82.209,100.000 80.000,100.000 L4.000,100.000 C1.791,100.000 -0.000,98.209 -0.000,96.000 L-0.000,4.000 C-0.000,1.791 1.791,-0.000 4.000,-0.000 L62.000,-0.000 L84.000,22.000 Z" class="cls-1"/>
    <path d="M84.000,22.000 L66.000,22.000 C63.791,22.000 62.000,20.209 62.000,18.000 L62.000,-0.000 L84.000,22.000 Z" class="cls-2"/>
    <path d="M67.591,47.709 C68.542,47.869 69.270,48.268 69.796,48.868 C70.322,49.468 70.605,50.228 70.605,51.188 C70.605,52.587 70.099,53.627 69.108,54.307 C68.259,54.867 67.086,55.167 65.609,55.167 L59.198,55.167 L59.198,40.891 L65.650,40.891 C66.985,40.891 68.056,41.210 68.845,41.850 C69.614,42.490 69.998,43.370 69.998,44.490 C69.998,45.289 69.775,45.989 69.351,46.569 C68.906,47.089 68.319,47.469 67.591,47.709 ZM60.857,53.787 L65.468,53.787 C66.479,53.787 67.268,53.587 67.874,53.227 C68.582,52.787 68.946,52.087 68.946,51.168 C68.946,50.248 68.623,49.568 68.016,49.128 C67.429,48.688 66.580,48.488 65.468,48.488 L60.857,48.488 L60.857,53.787 ZM67.571,42.850 C67.045,42.450 66.277,42.270 65.265,42.270 L60.857,42.270 L60.857,47.129 L65.245,47.129 C66.256,47.129 67.025,46.909 67.551,46.509 C68.077,46.089 68.360,45.469 68.360,44.650 C68.360,43.850 68.097,43.250 67.571,42.850 ZM50.256,55.167 L44.917,40.891 L46.737,40.891 L51.247,53.387 L51.307,53.387 L55.817,40.891 L57.637,40.891 L52.298,55.167 L50.256,55.167 ZM41.696,43.810 L41.635,43.810 L36.640,55.167 L35.143,55.167 L30.148,43.810 L30.087,43.810 L30.087,55.167 L28.429,55.167 L28.429,40.891 L30.492,40.891 L35.871,53.067 L35.932,53.067 L41.292,40.891 L43.354,40.891 L43.354,55.167 L41.696,55.167 L41.696,43.810 ZM25.351,50.868 L25.574,53.067 C25.655,53.947 25.917,54.647 26.342,55.167 L24.542,55.167 C24.219,54.687 24.016,54.067 23.956,53.267 L23.774,51.368 C23.693,50.528 23.389,49.908 22.864,49.548 C22.378,49.188 21.691,49.028 20.780,49.028 L16.412,49.028 L16.412,55.167 L14.754,55.167 L14.754,40.891 L20.983,40.891 C22.419,40.891 23.551,41.210 24.380,41.870 C25.230,42.550 25.675,43.550 25.675,44.869 C25.675,45.669 25.452,46.369 25.007,46.989 C24.522,47.629 23.875,48.029 23.046,48.228 L23.046,48.268 C24.421,48.568 25.189,49.428 25.351,50.868 ZM23.228,46.869 C23.733,46.409 23.996,45.769 23.996,44.929 C23.996,44.050 23.733,43.390 23.248,42.970 C22.722,42.530 21.893,42.310 20.780,42.310 L16.412,42.310 L16.412,47.609 L20.780,47.609 C21.832,47.609 22.661,47.349 23.228,46.869 Z" class="cls-3"/>
  </g>
</svg>
