<svg xmlns="http://www.w3.org/2000/svg" xmlns:xlink="http://www.w3.org/1999/xlink" preserveAspectRatio="xMidYMid" width="84" height="100" viewBox="0 0 84 100">
  <defs>
    <style>
      .cls-1 {
        fill: url(#linear-gradient-1);
      }

      .cls-1, .cls-2, .cls-3 {
        fill-rule: evenodd;
      }

      .cls-2 {
        fill: #d9defa;
      }

      .cls-3 {
        fill: #fff;
      }
    </style>

    <linearGradient id="linear-gradient-1" gradientUnits="userSpaceOnUse" x1="42" y1="100" x2="42">
      <stop offset="0" stop-color="#9e9eee"/>
      <stop offset="1" stop-color="#7d7ce5"/>
    </linearGradient>
  </defs>
  <g>
    <path d="M84.000,22.000 L84.000,96.000 C84.000,98.209 82.209,100.000 80.000,100.000 L4.000,100.000 C1.791,100.000 -0.000,98.209 -0.000,96.000 L-0.000,4.000 C-0.000,1.791 1.791,-0.000 4.000,-0.000 L62.000,-0.000 L84.000,22.000 Z" class="cls-1"/>
    <path d="M84.000,22.000 L66.000,22.000 C63.791,22.000 62.000,20.209 62.000,18.000 L62.000,-0.000 L84.000,22.000 Z" class="cls-2"/>
    <path d="M60.437,55.167 L58.394,55.167 L53.055,40.891 L54.875,40.891 L59.385,53.387 L59.446,53.387 L63.956,40.891 L65.776,40.891 L60.437,55.167 ZM49.834,43.810 L49.774,43.810 L44.778,55.167 L43.282,55.167 L38.286,43.810 L38.226,43.810 L38.226,55.167 L36.567,55.167 L36.567,40.891 L38.630,40.891 L44.010,53.067 L44.070,53.067 L49.430,40.891 L51.493,40.891 L51.493,55.167 L49.834,55.167 L49.834,43.810 ZM29.019,55.167 L25.742,43.270 L25.682,43.270 L22.385,55.167 L20.545,55.167 L16.399,40.891 L18.259,40.891 L21.434,52.867 L21.515,52.867 L24.812,40.891 L26.612,40.891 L29.888,52.867 L29.969,52.867 L33.144,40.891 L35.005,40.891 L30.859,55.167 L29.019,55.167 Z" class="cls-3"/>
  </g>
</svg>
